<!DOCTYPE svg PUBLIC "-//W3C//DTD SVG 1.1//EN" "http://www.w3.org/Graphics/SVG/1.1/DTD/svg11.dtd">
<!-- Uploaded to: SVG Repo, www.svgrepo.com, Transformed by: SVG Repo Mixer Tools -->
<svg height="72px" width="72px" version="1.1" id="Layer_1" xmlns="http://www.w3.org/2000/svg" xmlns:xlink="http://www.w3.org/1999/xlink" viewBox="0 0 512 512" xml:space="preserve" fill="#000000">
<g id="SVGRepo_bgCarrier" stroke-width="0"/>
<g id="SVGRepo_tracerCarrier" stroke-linecap="round" stroke-linejoin="round"/>
<g id="SVGRepo_iconCarrier"> <path style="fill:#a8f09e;" d="M14.798,286.485v153.423c0,18.854,15.283,34.137,34.137,34.137h76.108V225.169l-73.733,16.02 C30,245.818,14.798,264.677,14.798,286.485z"/> <path style="fill:#529865;" d="M125.043,488.843H48.933C21.951,488.843,0,466.891,0,439.908V286.486 c0-28.561,20.257-53.694,48.168-59.758l73.733-16.02c4.377-0.95,8.945,0.132,12.427,2.939c3.485,2.809,5.512,7.045,5.512,11.522 v248.878C139.84,482.218,133.214,488.843,125.043,488.843z M110.245,243.525l-55.794,12.122c-14.403,3.13-24.856,16.1-24.856,30.839 v153.422c0,10.665,8.674,19.339,19.338,19.339h61.312V243.525z"/> <path style="fill:#a8f09e;" d="M386.957,225.45v248.595h76.108c18.854,0,34.137-15.283,34.137-34.137v-153.33 c0-21.85-15.259-40.734-36.623-45.321L386.957,225.45z"/> <g> <path style="fill:#529865;" d="M463.067,488.843h-76.109c-8.171,0-14.798-6.625-14.798-14.798V225.45c0-4.47,2.02-8.7,5.497-11.51 c3.476-2.809,8.032-3.898,12.408-2.96l73.622,15.808C491.681,232.802,512,257.946,512,286.58v153.329 C512,466.891,490.049,488.843,463.067,488.843z M401.755,459.247h61.312c10.663,0,19.338-8.676,19.338-19.339V286.58 c0-14.776-10.486-27.752-24.933-30.853l-55.717-11.964L401.755,459.247L401.755,459.247z"/> <path style="fill:#529865;" d="M386.957,488.843H125.043c-8.171,0-14.798-6.625-14.798-14.798V88.415 c0-34.418,26.893-63.071,61.224-65.229c0.309-0.019,0.619-0.03,0.928-0.03h167.206c0.309,0,0.619,0.01,0.928,0.03 c34.331,2.158,61.224,30.81,61.224,65.229v51.199c0,8.173-6.626,14.798-14.798,14.798c-8.171,0-14.798-6.625-14.798-14.798V88.415 c0-18.693-14.487-34.276-33.061-35.663H172.902c-18.574,1.387-33.061,16.97-33.061,35.663v370.834h247.117 c8.171,0,14.798,6.625,14.798,14.798C401.755,482.22,395.13,488.843,386.957,488.843z"/> <path style="fill:#529865;" d="M195.593,488.843c-8.171,0-14.798-6.625-14.798-14.798V358.893c0-25.674,20.886-46.56,46.56-46.56 h57.293c25.674,0,46.56,20.887,46.56,46.56v47.417c0,8.173-6.626,14.798-14.798,14.798c-8.171,0-14.798-6.625-14.798-14.798 v-47.417c0-9.354-7.611-16.964-16.964-16.964h-57.293c-9.354,0-16.964,7.611-16.964,16.964v115.152 C210.39,482.218,203.764,488.843,195.593,488.843z"/> <path style="fill:#529865;" d="M325.788,253.56H186.212c-8.171,0-14.798-6.625-14.798-14.798c0-8.173,6.626-14.798,14.798-14.798 h139.576c8.171,0,14.798,6.625,14.798,14.798C340.586,246.935,333.961,253.56,325.788,253.56z"/> <path style="fill:#529865;" d="M276.615,178.072h-41.227v56.143c0,6.628-8.08,9.944-16.159,9.944s-16.159-3.315-16.159-9.944 V102.455c0-6.837,8.08-9.737,16.159-9.737s16.159,2.9,16.159,9.737v50.756h41.227v-50.756c0-6.837,8.08-9.737,16.159-9.737 s16.159,2.9,16.159,9.737v131.759c0,6.628-8.08,9.944-16.159,9.944s-16.159-3.315-16.159-9.944V178.072z"/> </g> </g>
</svg>